<?xml version="1.0" encoding="utf-8"?>
<!-- Generator: Adobe Illustrator 24.2.1, SVG Export Plug-In . SVG Version: 6.00 Build 0)  -->
<svg version="1.1" id="Layer_1" xmlns="http://www.w3.org/2000/svg" xmlns:xlink="http://www.w3.org/1999/xlink" x="0px" y="0px"
	 viewBox="0 0 1287 448" style="enable-background:new 0 0 1287 448;" xml:space="preserve">
<g>
	<g>
		<path d="M312.8,366.7L195.5,183.5L76.3,366.7H28.4l151.2-227.5H211l150.2,227.5H312.8z"/>
		<path d="M598.4,366.7l-53.3-82.4H425.2v82.4h-43V139.2h193.2c12.9,0,23.9,1.3,33,4c9,2.7,16.4,6.5,22.1,11.3
			c5.7,4.8,9.9,10.6,12.4,17.3s3.9,14.1,3.9,22.3v35.2c0,14.7-4.3,26.9-12.9,36.7c-8.6,9.8-23.1,15.7-43.3,17.6l53.6,83.1H598.4z
			 M603.9,193.8c0-14-9.5-21-28.4-21H425.2v77.9h150.2c19,0,28.4-7,28.4-21L603.9,193.8L603.9,193.8z"/>
		<path d="M760.9,366.7c-54.1,0-81.1-16.4-81.1-49.1V188.3c0-32.7,27-49.1,81.1-49.1h178v33.6h-178c-25.4,0-38.1,5.2-38.1,15.5
			v129.2c0,10.3,12.7,15.5,38.1,15.5h100.5c25.4,0,38.1-4.9,38.1-14.9V253h43v65.3c0,32.3-27,48.5-81.1,48.5L760.9,366.7
			L760.9,366.7z"/>
		<path d="M1052,366.7c-12.9,0-23.9-1.3-33-4c-9-2.7-16.4-6.5-22.1-11.3c-5.7-4.9-9.9-10.6-12.4-17.3s-3.9-14.1-3.9-22.3V194.2
			c0-8.2,1.3-15.6,3.9-22.3s6.7-12.4,12.4-17.3c5.7-4.8,13.1-8.6,22.1-11.3s20-4,33-4h150.2c12.9,0,23.9,1.3,33,4
			c9,2.7,16.4,6.5,22.1,11.3s9.9,10.6,12.4,17.3s3.9,14.1,3.9,22.3v117.6c0,8.2-1.3,15.6-3.9,22.3s-6.7,12.4-12.4,17.3
			c-5.7,4.8-13.1,8.6-22.1,11.3c-9,2.7-20,4-33,4L1052,366.7L1052,366.7z M1230.7,193.8c0-14-9.5-21-28.4-21H1052
			c-19,0-28.4,7-28.4,21v118.3c0,14,9.5,21,28.4,21h150.2c19,0,28.4-7,28.4-21L1230.7,193.8L1230.7,193.8z"/>
	</g>
	<path d="M1150.1,239.9c0-3.1-2.1-4.6-6.3-4.6h-33.2c-4.2,0-6.3,1.5-6.3,4.6V266c0,3.1,2.1,4.6,6.3,4.6h33.2c4.2,0,6.3-1.5,6.3-4.6
		V239.9z"/>
</g>
</svg>
