<?xml version="1.0" encoding="utf-8"?>
<!-- Generator: Adobe Illustrator 24.2.1, SVG Export Plug-In . SVG Version: 6.00 Build 0)  -->
<svg version="1.1" id="Layer_1" xmlns="http://www.w3.org/2000/svg" xmlns:xlink="http://www.w3.org/1999/xlink" x="0px" y="0px"
	 viewBox="0 0 1287 448" style="enable-background:new 0 0 1287 448;" xml:space="preserve">
<style type="text/css">
	.st0{fill:#18214D;stroke:#18214D;stroke-width:10;stroke-miterlimit:10;}
	.st1{fill:#ADFF00;}
</style>
<path class="st0" d="M553,330"/>
<g>
	<g>
		<path class="st1" d="M317.4,359.5L200.7,177.2L82,359.5H34.4l150.5-226.4h31.2l149.5,226.4H317.4z"/>
		<path class="st1" d="M601.7,359.5l-53.1-82H429.3v82h-42.8V133.1h192.3c12.9,0,23.8,1.3,32.8,4s16.3,6.4,22,11.3
			c5.7,4.8,9.8,10.6,12.4,17.2s3.9,14,3.9,22.2v35c0,14.6-4.3,26.7-12.9,36.5c-8.6,9.8-22.9,15.6-43.1,17.5l53.4,82.7H601.7z
			 M607.1,187.5c0-13.9-9.4-20.9-28.3-20.9H429.3V244h149.5c18.9,0,28.3-7,28.3-20.9V187.5z"/>
		<path class="st1" d="M763.4,359.5c-53.8,0-80.7-16.3-80.7-48.9V182c0-32.6,26.9-48.9,80.7-48.9h177.2v33.4H763.4
			c-25.3,0-37.9,5.2-37.9,15.4v128.6c0,10.3,12.6,15.4,37.9,15.4h100c25.3,0,37.9-4.9,37.9-14.8v-65h42.8v65
			c0,32.2-26.9,48.2-80.7,48.2h-100V359.5z"/>
		<path class="st1" d="M1053.1,359.5c-12.9,0-23.8-1.3-32.8-4c-9-2.7-16.3-6.4-22-11.2c-5.7-4.8-9.8-10.6-12.4-17.2
			c-2.6-6.6-3.9-14-3.9-22.2v-117c0-8.1,1.3-15.5,3.9-22.2s6.7-12.4,12.4-17.2s13-8.6,22-11.3c9-2.7,19.9-4,32.8-4h149.5
			c12.9,0,23.8,1.3,32.8,4s16.3,6.4,22,11.3c5.7,4.8,9.8,10.6,12.4,17.2s3.9,14,3.9,22.2v117c0,8.1-1.3,15.5-3.9,22.2
			c-2.6,6.6-6.7,12.4-12.4,17.2c-5.7,4.8-13,8.6-22,11.2c-9,2.7-19.9,4-32.8,4H1053.1z M1230.9,187.5c0-13.9-9.4-20.9-28.3-20.9
			h-149.5c-18.9,0-28.3,7-28.3,20.9v117.7c0,13.9,9.4,20.9,28.3,20.9h149.5c18.9,0,28.3-7,28.3-20.9V187.5z"/>
	</g>
	<path class="st1" d="M1150.7,233.3c0-3.1-2.1-4.6-6.3-4.6h-33.1c-4.2,0-6.3,1.5-6.3,4.6v26c0,3.1,2.1,4.6,6.3,4.6h33.1
		c4.2,0,6.3-1.5,6.3-4.6V233.3z"/>
</g>
</svg>
