<?xml version="1.0" encoding="utf-8"?>
<!-- Generator: Adobe Illustrator 24.2.1, SVG Export Plug-In . SVG Version: 6.00 Build 0)  -->
<svg version="1.1" id="Layer_1" xmlns="http://www.w3.org/2000/svg" xmlns:xlink="http://www.w3.org/1999/xlink" x="0px" y="0px"
	 viewBox="0 0 1287 448" style="enable-background:new 0 0 1287 448;" xml:space="preserve">
<g>
	<g>
		<path d="M313.8,370.6l-117.2-183l-119.1,183H29.8l151-227.2h31.3l150.1,227.2H313.8z"/>
		<path d="M599.2,370.6l-53.3-82.3H426.2v82.3h-42.9V143.4h193c12.9,0,23.9,1.3,32.9,4s16.4,6.5,22.1,11.3
			c5.7,4.8,9.8,10.6,12.4,17.3s3.9,14.1,3.9,22.3v35.2c0,14.6-4.3,26.8-12.9,36.6c-8.6,9.8-23,15.7-43.3,17.6l53.6,83h-45.8
			L599.2,370.6L599.2,370.6z M604.6,197.9c0-14-9.5-21-28.4-21h-150v77.8h150.1c18.9,0,28.4-7,28.4-21L604.6,197.9L604.6,197.9z"/>
		<path d="M761.5,370.6c-54,0-81-16.3-81-49.1v-129c0-32.7,27-49.1,81-49.1h177.8V177H761.5c-25.4,0-38.1,5.2-38.1,15.5v129.1
			c0,10.3,12.7,15.5,38.1,15.5h100.4c25.4,0,38.1-4.9,38.1-14.8V257h42.9v65.2c0,32.3-27,48.4-81,48.4H761.5z"/>
		<path d="M1052.3,370.6c-12.9,0-23.9-1.3-32.9-4s-16.4-6.4-22.1-11.3c-5.7-4.8-9.8-10.6-12.4-17.3c-2.6-6.7-3.9-14.1-3.9-22.3
			V198.3c0-8.2,1.3-15.6,3.9-22.3s6.7-12.4,12.4-17.3c5.7-4.8,13.1-8.6,22.1-11.3s20-4,32.9-4h150.1c12.9,0,23.9,1.3,32.9,4
			s16.4,6.5,22.1,11.3s9.8,10.6,12.4,17.3s3.9,14.1,3.9,22.3v117.5c0,8.2-1.3,15.6-3.9,22.3c-2.6,6.7-6.7,12.4-12.4,17.3
			c-5.7,4.8-13.1,8.6-22.1,11.3c-9,2.7-20,4-32.9,4L1052.3,370.6L1052.3,370.6z M1230.8,197.9c0-14-9.5-21-28.4-21h-150.1
			c-18.9,0-28.4,7-28.4,21V316c0,14,9.5,21,28.4,21h150.1c18.9,0,28.4-7,28.4-21V197.9z"/>
	</g>
	<path d="M1150.2,243.9c0-3.1-2.1-4.6-6.3-4.6h-33.2c-4.2,0-6.3,1.5-6.3,4.6V270c0,3.1,2.1,4.6,6.3,4.6h33.2c4.2,0,6.3-1.5,6.3-4.6
		V243.9z"/>
</g>
</svg>
