<?xml version="1.0" encoding="utf-8"?>
<!-- Generator: Adobe Illustrator 24.2.1, SVG Export Plug-In . SVG Version: 6.00 Build 0)  -->
<svg version="1.1" id="Layer_1" xmlns="http://www.w3.org/2000/svg" xmlns:xlink="http://www.w3.org/1999/xlink" x="0px" y="0px"
	 viewBox="0 0 384.4 302.6" style="enable-background:new 0 0 384.4 302.6;" xml:space="preserve">
<g>
	<path d="M101.3,288.9c-15.6,0-28.9-1.6-39.9-4.9c-10.9-3.3-19.9-7.8-26.8-13.7c-6.9-5.9-11.9-12.8-15.1-20.9s-4.7-17.1-4.7-27V80.1
		c0-9.9,1.6-18.9,4.7-27s8.1-15.1,15.1-20.9c6.9-5.9,15.8-10.4,26.8-13.7c10.9-3.3,24.2-4.9,39.9-4.9h181.8
		c15.6,0,28.9,1.6,39.9,4.9c10.9,3.3,19.9,7.8,26.8,13.7c6.9,5.9,11.9,12.8,15.1,20.9c3.1,8.1,4.7,17.1,4.7,27v142.3
		c0,9.9-1.6,18.9-4.7,27c-3.1,8.1-8.1,15-15.1,20.9c-6.9,5.9-15.8,10.4-26.8,13.7c-10.9,3.3-24.2,4.9-39.9,4.9H101.3z M317.5,79.7
		c0-16.9-11.5-25.4-34.4-25.4H101.3c-22.9,0-34.4,8.5-34.4,25.4v143.1c0,16.9,11.5,25.4,34.4,25.4h181.8c22.9,0,34.4-8.5,34.4-25.4
		V79.7z"/>
	<path d="M226.8,131.5c0-4.7-3.2-7-9.5-7h-50.3c-6.3,0-9.5,2.3-9.5,7v39.6c0,4.7,3.2,7,9.5,7h50.3c6.3,0,9.5-2.3,9.5-7V131.5z"/>
</g>
</svg>
