<?xml version="1.0" encoding="utf-8"?>
<!-- Generator: Adobe Illustrator 24.2.1, SVG Export Plug-In . SVG Version: 6.00 Build 0)  -->
<svg version="1.1" id="Layer_1" xmlns="http://www.w3.org/2000/svg" xmlns:xlink="http://www.w3.org/1999/xlink" x="0px" y="0px"
	 viewBox="0 0 1024 797" style="enable-background:new 0 0 1024 797;" xml:space="preserve">
<path d="M1012.9,382.9H847.1V264.6c0-18.6-2.9-35.6-8.8-50.8c-5.9-15.2-15.3-28.3-28.3-39.4c-13-11-29.8-19.6-50.4-25.7
	c-20.6-6.1-45.6-9.2-75-9.2H524V10.4C524,4.7,519.3,0,513.6,0c-5.8,0-10.4,4.7-10.4,10.4v129.1H342.5c-29.4,0-54.4,3.1-75,9.2
	c-20.6,6.1-37.4,14.7-50.4,25.7c-13,11-22.4,24.2-28.3,39.4c-5.9,15.2-8.8,32.1-8.8,50.8v118.2H11.1c-5.8,0-10.4,4.7-10.4,10.4
	c0,5.8,4.7,10.4,10.4,10.4H180v128.6c0,18.6,2.9,35.6,8.8,50.8c5.9,15.2,15.3,28.3,28.3,39.4c13,11,29.8,19.6,50.4,25.7
	c20.6,6.2,45.6,9.2,75,9.2h160.6v129.1c0,5.8,4.7,10.4,10.4,10.4c5.8,0,10.4-4.7,10.4-10.4V657.4h160.6c29.4,0,54.4-3,75-9.2
	c20.6-6.1,37.4-14.7,50.4-25.7c13-11,22.4-24.2,28.3-39.4c5.9-15.2,8.8-32.1,8.8-50.8V403.7h165.8c5.8,0,10.4-4.7,10.4-10.4
	C1023.4,387.5,1018.7,382.9,1012.9,382.9z M503.1,580.9H342.5c-43.2,0-64.7-15.9-64.7-47.8V403.7h186.9v17.4c0,6.6,4.5,9.9,13.4,9.9
	h25V580.9z M503.1,355.5h-25c-8.9,0-13.4,3.3-13.4,9.9v17.4H277.8v-119c0-31.9,21.6-47.8,64.7-47.8h160.6V355.5z M749.3,533.1
	c0,31.9-21.6,47.8-64.7,47.8H524V431.1h25c8.9,0,13.4-3.3,13.4-9.9v-17.4h186.9V533.1z M749.3,382.9H562.4v-17.4
	c0-6.6-4.5-9.9-13.4-9.9h-25V216.1h160.6c43.1,0,64.7,15.9,64.7,47.8V382.9z"/>
</svg>
